# xmcd
#
# Track frame offsets: 
#        150
#        19187
#        42102
#        60922
#        79197
#        92457
#        104140
#        119502
#        139097
#        154885
#
# Disc length: 2330 seconds
#
# Revision: 0
# Processed by: cddbd v1.5.2PL0 Copyright (c) Steve Scherf et al.
# Submitted via: ExactAudioCopy v0.99pb4
#
DISCID=7d09180a
DTITLE=Chris Armstrong Band - One Woman's Opinion
DYEAR=1900
DGENRE=Blues
TTITLE0=Majesty
TTITLE1=Just Got Back
TTITLE2=Snakebite
TTITLE3=Change My Mind
TTITLE4=Mr. Midnight
TTITLE5=Ain't Got Time
TTITLE6=Continental Night
TTITLE7=Three
TTITLE8=Married To the Blues
TTITLE9=One Woman's Opinion
EXTD=
EXTT0=
EXTT1=
EXTT2=
EXTT3=
EXTT4=
EXTT5=
EXTT6=
EXTT7=
EXTT8=
EXTT9=
PLAYORDER=
